<?xml version="1.0" encoding="UTF-8" standalone="no"?>
<!-- Created with Inkscape (http://www.inkscape.org/) -->

<svg
   version="1.1"
   id="svg1"
   width="1143.0133"
   height="321.95999"
   viewBox="0 0 1143.0133 321.95999"
   sodipodi:docname="Diamond logo update 2019.svg"
   inkscape:version="1.3.2 (091e20ef0f, 2023-11-25)"
   xmlns:inkscape="http://www.inkscape.org/namespaces/inkscape"
   xmlns:sodipodi="http://sodipodi.sourceforge.net/DTD/sodipodi-0.dtd"
   xmlns="http://www.w3.org/2000/svg"
   xmlns:svg="http://www.w3.org/2000/svg">
  <defs
     id="defs1" />
  <sodipodi:namedview
     id="namedview1"
     pagecolor="#ffffff"
     bordercolor="#000000"
     borderopacity="0.25"
     inkscape:showpageshadow="2"
     inkscape:pageopacity="0.0"
     inkscape:pagecheckerboard="0"
     inkscape:deskcolor="#d1d1d1"
     inkscape:zoom="1.9291114"
     inkscape:cx="571.50666"
     inkscape:cy="161.21412"
     inkscape:window-width="2752"
     inkscape:window-height="1080"
     inkscape:window-x="0"
     inkscape:window-y="0"
     inkscape:window-maximized="1"
     inkscape:current-layer="g1">
    <inkscape:page
       x="0"
       y="0"
       inkscape:label="1"
       id="page1"
       width="1143.0133"
       height="321.95999"
       margin="0"
       bleed="0" />
  </sodipodi:namedview>
  <g
     id="g1"
     inkscape:groupmode="layer"
     inkscape:label="1">
    <g
       id="group-R5">
      <path
         id="path2"
         d="m 0,1207.35 c 0,666.81 540.551,1207.36 1207.36,1207.36 666.83,0 1207.39,-540.55 1207.39,-1207.36 C 2414.75,540.551 1874.19,0 1207.36,0 540.551,0 0,540.551 0,1207.35"
         style="fill:#ffffff;fill-opacity:1;fill-rule:nonzero;stroke:none"
         transform="matrix(0.13333333,0,0,-0.13333333,0,321.96)" />
      <path
         id="path3"
         d="m 1670.29,504.891 c -64.2,-9.172 -84.88,-59.153 -45.98,-111.012 l 177.76,-236.988 c 177.52,100.73 327.08,244.929 433.91,418.429 l -565.69,-70.429"
         style="fill:#facf07;fill-opacity:1;fill-rule:nonzero;stroke:none"
         transform="matrix(0.13333333,0,0,-0.13333333,0,321.96)" />
      <path
         id="path4"
         d="m 746.648,757.441 c 64.211,9.168 84.895,59.11 45.989,110.981 L 327.66,1488.41 c -38.933,51.87 -28.297,62.48 23.578,23.58 l 619.891,-464.91 c 51.871,-38.94 101.811,-18.22 110.981,45.95 l 109.6,1130.25 c 9.14,64.21 24.17,64.21 33.35,0 l 109.59,-1130.41 c 9.18,-64.18 59.12,-84.86 110.99,-45.96 l 620.13,465.08 c 51.87,38.9 62.47,28.29 23.57,-23.58 L 1624.33,868.391 c -38.9,-51.871 -18.22,-101.813 45.99,-110.993 l 623.14,-77.57 c 77.61,159.402 121.2,338.392 121.2,527.622 0,666.73 -540.52,1207.25 -1207.29,1207.25 C 540.602,2414.7 0.078125,1874.18 0.078125,1207.45 0.078125,1018.12 43.7344,839.031 121.379,679.59 l 625.269,77.851"
         style="fill:#facf07;fill-opacity:1;fill-rule:nonzero;stroke:none"
         transform="matrix(0.13333333,0,0,-0.13333333,0,321.96)" />
      <path
         id="path5"
         d="m 1082.1,169.25 c -9.17,64.172 -59.11,84.852 -110.983,45.98 L 785.547,76.0195 C 886.492,38.3711 993.926,14.0313 1105.62,4.69141 L 1082.1,169.25"
         style="fill:#facf07;fill-opacity:1;fill-rule:nonzero;stroke:none"
         transform="matrix(0.13333333,0,0,-0.13333333,0,321.96)" />
      <path
         id="path6"
         d="M 1334.65,169.398 1311.14,4.83984 c 111.52,9.51176 218.72,33.99216 319.53,71.76176 l -185,138.7774 c -51.91,38.91 -101.85,18.191 -111.02,-45.981"
         style="fill:#facf07;fill-opacity:1;fill-rule:nonzero;stroke:none"
         transform="matrix(0.13333333,0,0,-0.13333333,0,321.96)" />
      <path
         id="path7"
         d="M 746.648,504.852 178.57,575.582 C 285.73,401.469 435.93,256.809 614.215,155.988 l 178.422,237.883 c 38.906,51.859 18.222,101.801 -45.989,110.981"
         style="fill:#facf07;fill-opacity:1;fill-rule:nonzero;stroke:none"
         transform="matrix(0.13333333,0,0,-0.13333333,0,321.96)" />
      <path
         id="path8"
         d="m 3255.07,639.711 c 0,-55.93 0,-135.332 -112.08,-135.332 -133.81,0 -227.8,131.742 -227.8,359.043 0,193.078 81.36,355.448 222.38,355.448 57.85,0 94,-27.07 117.5,-45.13 z m 223.75,1081.999 c 0,32.29 -9.02,39.47 -43.3,39.47 h -138.95 c -36.08,0 -41.5,-16.16 -41.5,-43.05 v -425.35 c -36.17,21.65 -81.36,48.71 -164.52,48.71 -265.74,0 -401.3,-265.17 -401.3,-517.74 0,-294.102 155.45,-465.512 424.81,-465.512 115.71,0 245.65,30.703 307.03,75.813 54.1,39.668 57.73,86.59 57.73,133.508 V 1721.71"
         style="fill:#202740;fill-opacity:1;fill-rule:nonzero;stroke:none"
         transform="matrix(0.13333333,0,0,-0.13333333,0,321.96)" />
      <path
         id="path9"
         d="m 3823.4,421.461 c 0,-28.82 -3.59,-39.629 -39.5,-39.629 h -156.31 c -28.73,0 -30.52,9.008 -30.52,37.84 v 857.998 c 0,25.23 3.56,37.87 34.11,37.87 h 152.72 c 34.12,0 37.71,-9.05 39.5,-39.67 z M 3710.59,1447.57 c -75.81,0 -122.77,45.06 -122.77,108.13 0,63.08 43.33,113.52 122.77,113.52 77.6,0 115.51,-50.44 117.3,-108.13 1.83,-66.67 -46.91,-113.52 -117.3,-113.52"
         style="fill:#202740;fill-opacity:1;fill-rule:nonzero;stroke:none"
         transform="matrix(0.13333333,0,0,-0.13333333,0,321.96)" />
      <path
         id="path10"
         d="m 4369.57,601.871 c 0,-39.633 -1.83,-118.902 -112.92,-118.902 -96.52,0 -151.16,64.871 -151.16,154.941 0,135.102 122.03,172.942 264.08,216.168 z m 212.2,421.549 c 0,133.3 1.8,315.48 -288.67,315.48 -219.96,0 -360.18,-108.3 -360.18,-218.22 0,-57.62 43.16,-95.47 97.06,-95.47 68.3,0 84.62,45.03 100.98,90.08 14.57,32.42 40.07,99.09 127.52,99.09 109.26,0 111.09,-97.29 111.09,-163.96 v -91.869 c -207.62,-54.031 -325.19,-84.653 -404.29,-162.102 -71.89,-68.461 -79.07,-144.14 -79.07,-183.769 0,-254.231 292.13,-254.231 350.39,-254.231 32.78,0 172.54,1.789 266.04,54.16 70.12,37.871 77.34,81.2 79.13,160.43 v 450.381"
         style="fill:#202740;fill-opacity:1;fill-rule:nonzero;stroke:none"
         transform="matrix(0.13333333,0,0,-0.13333333,0,321.96)" />
      <path
         id="path11"
         d="m 4690.05,1133.71 c 1.8,75.71 1.8,95.52 46.96,127.98 73.94,54 221.91,77.44 306.67,77.44 180.41,0 245.38,-68.47 279.63,-102.68 27.07,27.03 61.38,59.45 142.54,82.86 50.51,14.4 104.61,19.82 158.74,19.82 77.54,0 155.15,-12.6 214.7,-59.45 86.61,-70.26 88.45,-180.26 88.45,-239.21 V 419.719 c 0,-27.059 -7.26,-37.899 -36.14,-37.899 h -149.73 c -30.69,0 -37.91,9 -37.91,39.692 v 590.128 c 0,77.58 -1.83,193.09 -142.51,193.09 -48.71,0 -81.16,-18.06 -101.02,-36.11 -39.66,-34.31 -39.66,-70.36 -39.66,-128.15 V 421.48 c 0,-28.82 -5.42,-39.66 -36.08,-39.66 h -144.37 c -28.87,0 -43.29,3.621 -43.29,37.871 v 602.229 c 0,55.86 0,187.5 -140.73,187.5 -14.42,0 -61.3,0 -99.22,-36.05 -41.45,-37.87 -43.29,-81.16 -43.29,-133.43 V 421.48 c 0,-32.449 -9,-39.66 -39.66,-39.66 h -144.34 c -34.32,0 -39.74,10.84 -39.74,37.871 v 714.019"
         style="fill:#202740;fill-opacity:1;fill-rule:nonzero;stroke:none"
         transform="matrix(0.13333333,0,0,-0.13333333,0,321.96)" />
      <path
         id="path12"
         d="m 6636.32,870.41 c 8.95,-206.808 -72.32,-361.488 -187.97,-361.488 -119.29,0 -206.04,165.449 -206.04,366.879 0,181.649 66.89,329.149 189.76,329.149 106.63,0 195.21,-120.54 204.25,-334.54 m 233.42,-10.801 c -5.39,217.631 -132.87,479.271 -426.83,479.271 -263.81,0 -433.59,-209.51 -433.59,-490.04 0,-276.981 164.36,-490.379 429.99,-490.379 281.41,0 435.85,236.769 430.43,501.148"
         style="fill:#202740;fill-opacity:1;fill-rule:nonzero;stroke:none"
         transform="matrix(0.13333333,0,0,-0.13333333,0,321.96)" />
      <path
         id="path13"
         d="m 7699.95,419.66 c 0,-32.422 -10.8,-37.84 -39.67,-37.84 H 7515.9 c -36.07,0 -39.69,14.43 -39.69,41.461 v 609.349 c 0,72.09 -1.8,183.88 -154.06,183.88 -143.31,0 -143.31,-109.96 -143.31,-151.46 V 425.078 c 0,-36.047 -9,-43.258 -43.29,-43.258 h -142.54 c -28.86,0 -37.91,7.211 -37.91,37.84 v 712.13 c 0,72.08 3.63,113.58 84.83,151.45 95.62,43.26 199.83,55.9 303.74,55.9 179.45,0 242.59,-45.09 273.29,-70.33 81.19,-66.74 82.99,-151.46 82.99,-214.57 V 419.66"
         style="fill:#202740;fill-opacity:1;fill-rule:nonzero;stroke:none"
         transform="matrix(0.13333333,0,0,-0.13333333,0,321.96)" />
      <path
         id="path14"
         d="m 8348.83,639.711 c 0,-55.93 0,-135.332 -112.09,-135.332 -133.77,0 -227.79,131.742 -227.79,359.043 0,193.078 81.36,355.448 222.37,355.448 57.86,0 94.04,-27.07 117.51,-45.13 z m 223.74,1081.999 c 0,32.29 -9.01,39.47 -43.29,39.47 h -138.91 c -36.12,0 -41.54,-16.16 -41.54,-43.05 v -425.35 c -36.14,21.65 -81.36,48.71 -164.52,48.71 -265.74,0 -401.27,-265.17 -401.27,-517.74 0,-294.102 155.41,-465.512 424.81,-465.512 115.68,0 245.62,30.703 307,75.813 54.1,39.668 57.72,86.59 57.72,133.508 V 1721.71"
         style="fill:#202740;fill-opacity:1;fill-rule:nonzero;stroke:none"
         transform="matrix(0.13333333,0,0,-0.13333333,0,321.96)" />
    </g>
  </g>
</svg>
